<?xml version="1.0" encoding="utf-8"?>
<!-- Generator: Adobe Illustrator 16.0.0, SVG Export Plug-In . SVG Version: 6.00 Build 0)  -->
<!DOCTYPE svg PUBLIC "-//W3C//DTD SVG 1.1//EN" "http://www.w3.org/Graphics/SVG/1.1/DTD/svg11.dtd">
<svg version="1.1" id="Layer_1" xmlns="http://www.w3.org/2000/svg" xmlns:xlink="http://www.w3.org/1999/xlink" x="0px" y="0px"
	 width="144px" height="144px" viewBox="0 0 144 144" enable-background="new 0 0 144 144" xml:space="preserve">
<rect fill="#677718" width="144" height="144"/>
<g>
	<defs>
		<rect id="SVGID_1_" x="-23" y="-23" width="190" height="190"/>
	</defs>
	<clipPath id="SVGID_2_">
		<use xlink:href="#SVGID_1_"  overflow="visible"/>
	</clipPath>
	<path clip-path="url(#SVGID_2_)" fill="#FFDB96" d="M89.606,48.248c-0.321,0.563-0.838,0.95-1.342,1.418
		c-0.287,0.266-0.386,0.676-0.683,0.928c-0.452,0.385-0.956,0.715-1.409,1.107c-0.659,0.563-1.564,0.639-2.373,0.948
		c-0.281,0.108-0.569,0.141-0.852,0.093c-1.17-0.192-2.444,0.146-3.821-0.204c-1.5-0.387-2.774-1.193-3.872-2.196
		c-0.298-0.277-0.754-0.519-0.771-0.946c0.082-0.071,0.017-0.226,0.207-0.144c0.4,0.174,0.661,0.579,1.077,0.731
		c1.283,0.475,2.598,0.911,4,1.095c0.772,0.099,1.308,0.101,2.105,0.069c1.374-0.058,2.662-0.371,3.993-0.688
		c0.498-0.119,1.2-0.4,1.6-0.709c0.601-0.463,1.204-0.968,1.859-1.455c0.104-0.074,0.097-0.271,0.222-0.363
		C89.666,47.849,89.644,48.183,89.606,48.248 M75.091,58.826c-0.25,0.134-0.485,0.162-0.69,0.409
		c-0.045,0.059-0.092,0.03-0.161,0.073c-0.202,0.128-0.246,0.354-0.444,0.484c-0.069,0.045-0.104,0.022-0.16,0.077
		c-0.407,0.366-0.809,0.707-1.096,1.207c-0.177,0.314-0.276,0.663-0.434,0.96c-0.029,0.052,0.017,0.211,0.076,0.157
		c0.3-0.307,0.523-0.628,0.848-0.912c0.044-0.037,0.08,0.046,0.073,0.102c-0.09,0.442-0.469,0.815-0.635,1.203
		c-0.025,0.068-0.041,0.088-0.031,0.164c0.016,0.116-0.267,0.13-0.255,0.244c0.011,0.077,0.005,0.101-0.032,0.168
		c-0.141,0.23-0.518,0.45-0.804,0.419c-0.206-0.02-0.23-0.178-0.282-0.339c-0.17-0.562,0-1.198,0.155-1.733
		c0.118-0.422,0.423-0.767,0.703-1.104c0.88-0.76,1.858-1.521,3.101-1.677C75.083,58.722,75.146,58.798,75.091,58.826
		 M80.092,56.699c-0.035,0.04-0.206-0.024-0.226,0.028c-0.036,0.101-0.069,0.055-0.157,0.125c-0.126,0.106-0.397,0.099-0.549,0.177
		c-0.665,0.35-1.218,0.831-1.839,1.248c-0.163,0.114-0.376,0.235-0.397,0.428c-0.015,0.073,0.005,0.1-0.03,0.164
		c-0.506,0.86-1.047,1.729-1.405,2.64c-0.023,0.049,0.033,0.136,0.07,0.097c0.424-0.402,0.612-1.014,1.134-1.321
		c0.108-0.067,0.128,0.155,0.093,0.256c-0.164,0.522-0.682,0.885-1.073,1.311c-0.118,0.125-0.683,0.516-0.772,0.26
		c-0.428-1.179,0.247-2.412,0.896-3.379c0.436-0.54,1.007-1.007,1.65-1.333c0.112-0.06,0.157-0.036,0.273-0.09
		c0.257-0.116,0.433-0.29,0.686-0.408c0.416-0.188,0.829-0.275,1.276-0.372c0.113-0.024,0.242-0.103,0.351,0.008
		C80.107,56.578,80.125,56.652,80.092,56.699 M80.115,58.835c0.815-0.745,1.708-1.34,2.674-1.835
		c0.009,0.053,0.009,0.053,0.017,0.106c-0.797,0.851-1.862,1.468-2.663,2.314c-0.282,0.04-0.656,0.242-0.816-0.053
		c-0.09-0.625,0.203-1.305,0.67-1.75c0.591-0.717,1.333-1.301,2.166-1.769c0.45-0.059,0.82-0.318,1.272-0.376
		c0.014,0.107,0.169-0.02,0.184,0.085c0.008,0.052,0.008,0.052,0.014,0.103c-0.055,0.008-0.055,0.008-0.111,0.014
		c-0.202,0.187-0.352,0.365-0.633,0.405c-0.057,0.007-0.041,0.032-0.104,0.063c-1.269,0.426-2.145,1.504-2.737,2.598
		C80.051,58.792,80.057,58.843,80.115,58.835 M86.424,55.366c-0.005,0.006-0.202,0.409-0.225,0.456
		c-0.732,1.218-1.515,1.726-2.571,2.572c-1.174,0.947-2.215,2.077-3.425,3.003c-0.556,0.423-1.112,0.758-1.686,1.125
		c-1.497,0.946-2.978,1.475-4.686,1.876c-1.501,0.349-3.099,0.327-4.603,0.095c-0.32-0.048-0.845-0.22-1.148-0.339
		c-0.717-0.277-1.401-0.646-1.954-1.144c-0.912-0.823-1.564-2.152-1.126-3.341c0.024-0.05-0.039-0.109-0.021-0.16
		c0.151-0.405,0.315-0.863,0.643-1.151c0.239-0.215,0.598-0.285,0.852-0.482c0.171-0.129,0.441-0.046,0.606-0.184
		c0.124,0.088,0.495-0.188,0.785-0.15c0.433,0.049,0.802-0.169,1.199-0.098c0.323,0.057,0.632,0.101,0.851,0.317
		c0.324,0.313,0.478,0.76,0.407,1.184c-0.083,0.517-0.453,1.013-0.903,1.345c-0.087,0.068-0.13,0.113-0.208,0.137
		c-0.331,0.081-0.732,0.359-1.07,0.188c-0.078-0.041,0.322-0.146,0.327-0.149c0.152-0.099,0.338-0.161,0.478-0.274
		c0.045-0.038,0.074,0.021,0.112-0.015c0.379-0.345,0.698-0.821,0.732-1.325c0.02-0.317-0.196-0.574-0.29-0.822
		c-0.094-0.219-0.354-0.29-0.632-0.35c-0.225-0.047-0.423-0.025-0.623,0.078c-0.111,0.061-0.131,0.218-0.253,0.247
		c-0.389,0.093-0.629,0.396-0.878,0.701c-0.049,0.062-0.114,0.014-0.165,0.077c-0.296,0.36-0.302,0.757-0.404,1.171
		c-0.061,0.251-0.067,0.413-0.133,0.661c-0.104,0.375-0.071,0.706,0.146,1c0.129,0.177,0.118,0.387,0.252,0.561
		c0.516,0.632,1.262,1.067,2.01,1.51c0.898,0.53,2.812,0.563,3.773,0.547c1.108-0.022,2.27-0.319,3.156-0.934
		c0.498-0.349,1.323-0.432,1.906-0.774c2.448-1.45,3.921-2.879,5.881-4.759c0.674-0.644,2.039-1.285,1.722-2.416
		c-0.219-0.815-2.869-0.196-3.296-0.066c-2.146,0.655-4.436,1.147-6.438,2.151c-0.855,0.427-1.599,0.96-2.308,1.578
		c-0.172,0.146-0.342,0.198-0.529,0.334c-0.189,0.135-0.314,0.346-0.507,0.492c-1.014,0.761-1.822,1.64-2.685,2.532
		c-0.158,0.163-0.326,0.345-0.506,0.492c-0.136,0.112-0.351-0.034-0.262-0.18c0.25-0.39,0.47-0.812,0.821-1.119
		c0.059-0.055,0.115-0.015,0.162-0.078c1.61-2.024,3.631-3.608,5.852-4.968c0.546-0.333,1.077-0.583,1.672-0.799
		c1.215-0.441,2.411-0.921,3.608-1.364c0.525-0.196,2.123-0.719,2.618-0.648c0.358,0.046,0.748-0.075,1.094-0.032
		c0.307,0.036,0.597,0.07,0.893,0.206C86.078,54.162,86.532,54.725,86.424,55.366 M83.42,60.887
		c-0.328,0.523-1.129,0.999-1.657,0.532c0.04-0.115-0.079-0.154-0.089-0.208c0.149-0.181,0.456-0.17,0.652-0.294
		c0.457-0.291,0.755-0.732,0.978-1.194c0.035-0.165,0.011-0.325,0.108-0.443c-0.01-0.053-0.021-0.157-0.032-0.208
		c0.168-0.079,0.229-0.029,0.309,0.121c0.133,0.519-0.064,1.131-0.288,1.587C83.404,60.831,83.404,60.831,83.42,60.887
		 M81.228,63.305c-0.395,0.339-0.721,0.739-1.171,1.057c-0.171,0.123-0.319,0.389-0.507,0.494c-0.107,0.061-0.18,0.116-0.257,0.191
		c-0.362,0.336-1.223,0.783-1.698,1.019c-0.755,0.373-3.053,1.053-3.936,1.138c-0.714,0.066-1.384,0.36-2.126,0.425
		c-0.694,0.063-1.378,0.112-2.072,0.047c-0.538-0.047-1.117-0.084-1.696-0.161c-0.254-0.034-0.492-0.116-0.779-0.17
		c-0.749-0.145-1.406-0.422-2.109-0.646c-1.236-0.389-2.296-1.098-3.228-1.949c-0.409-0.376-0.833-0.732-1.154-1.193
		c-0.271-0.382-0.59-0.811-0.815-1.236c-0.035-0.07,0.057-0.119,0.033-0.167c-0.225-0.458-0.472-0.957-0.507-1.491
		c-0.008-0.194-0.065-0.373-0.021-0.533c0.069-0.23,0.021-0.492,0.073-0.706c0.057-0.229,0.057-0.401,0.141-0.607
		c0.179-0.425,0.394-0.752,0.521-1.19c0.271-0.944,0.764-1.73,1.494-2.387c0.241-0.214,0.584-0.34,0.847-0.533
		c0.339-0.045,0.655-0.242,1.056-0.294c0.476-0.058,0.918-0.177,1.778-0.062c0.377,0.222,0.781,0.222,1.218,0.435
		c0.433,0.215,0.77,0.548,1.199,0.704c1.076,0.292,2.163-0.156,3.006-0.75c1.212-0.739,2.094-1.81,2.925-2.888
		c0.233-0.405,0.461-0.805,0.744-1.218l0.114-0.013c0.221,0.357-0.102,0.932-0.343,1.223c-0.05,0.437-0.288,0.786-0.521,1.137
		c-0.595,0.661-1.066,1.303-1.747,1.881c-0.358,0.302-1.042,0.59-1.112,0.673c-0.65,0.296-1.339,0.33-1.997,0.576
		c-0.179,0.054-0.408,0.121-0.567,0.067c-0.312-0.103-0.594-0.139-0.9-0.258c-0.373-0.169-0.676-0.483-1.022-0.675
		c-0.146-0.084-0.603-0.21-1.041-0.029c-0.322,0.129-0.669,0.19-0.993,0.337c-0.227,0.032-0.235,0.086-0.331,0.098
		c-0.162,0.009-0.979,0.412-1.127,0.565c-0.597,0.615-1.224,1.327-1.415,2.166c-0.132,0.569-0.211,1.14-0.154,1.727
		c0.076,0.747,0.123,1.456,0.485,2.142c0.69,1.301,1.393,1.953,2.767,2.756c0.153,0.089,0.341,0.112,0.492,0.206
		c0.313,0.184,0.549,0.401,0.892,0.533c1.434,0.556,2.944,1.025,4.449,1.262c1.573,0.237,3.178-0.03,4.678-0.376
		c1.078-0.246,2.118-0.678,3.117-1.194c0.78-0.408,1.373-0.909,2.102-1.391c0.184-0.118,1.24-1.128,1.259-1.285
		c0.032-0.283-0.069-0.563,0.052-0.809c0.118-0.242,0.628-0.339,0.74-0.092C82.222,62.231,81.515,63.057,81.228,63.305
		 M71.813,50.184c0.462-0.005,0.972-0.068,1.453,0.088c0.315,0.173,0.473,0.471,0.35,0.813c-0.41,0.214-0.936-0.102-0.936-0.102
		c-0.011-0.067-0.024-0.135-0.032-0.208c-0.26-0.182-0.591-0.084-0.847-0.27C71.732,50.408,71.83,50.289,71.813,50.184
		 M68.673,52.777c-0.081-0.153-0.161-0.304-0.005-0.427c0.185,0.082,0.354,0.061,0.527,0.039c0.183,0.083,0.353,0.062,0.536,0.148
		c0.123-0.338,0.015-0.7,0.272-0.946c0.019-0.061-0.007-0.131,0.023-0.215c0.273-0.34,0.335-0.789,0.646-1.102
		c0.288-0.421,0.583-0.83,1.051-1.099c0.015,0,0.222-0.078,0.39-0.1c0.096,0.258-0.054,0.434-0.263,0.568
		c-0.621,0.883-1.124,1.801-1.494,2.812c-0.148,0.179-0.292,0.36-0.441,0.538C69.479,53.157,69.079,52.833,68.673,52.777
		 M68.264,49.185c0.089-0.175,0.193-0.069,0.34-0.044l0.05-0.06c0.24,0.078,0.516-0.013,0.752,0.016
		c0.305,0.121,0.66,0.184,0.879,0.477c0.077,0.149,0.047,0.315,0.075,0.528c-0.149,0.175-0.355,0.309-0.587,0.34
		c-0.158-0.261-0.621-0.295-0.561-0.681c-0.321-0.129-0.72-0.178-0.934-0.471C68.271,49.236,68.271,49.236,68.264,49.185
		 M68.794,53.994c0.167,0.158,0.057,0.405-0.116,0.389c-0.31-0.032-0.656-0.173-0.759-0.442c-0.082-0.2,0.275-0.098,0.253-0.246
		c-0.021-0.147-0.261-0.2-0.336-0.329c-0.021-0.146-0.265-0.351-0.071-0.479c0.241-0.151,0.452,0.21,0.677,0.294
		c0.336,0.121,0.715,0.004,0.905,0.258c0.031,0.041-0.011,0.055,0.016,0.105c0.055,0.107,0.264,0.056,0.369,0.17
		c0.041,0.039,0.033,0.052,0.015,0.104c-0.06,0.231-0.298,0.249-0.534,0.283c-0.18,0.021-0.232-0.156-0.381-0.225
		C68.786,53.855,68.75,53.956,68.794,53.994 M89.06,46.667c-0.382,0.149-0.574,0.544-0.973,0.652
		c-0.122,0.036-0.166,0.036-0.269,0.103c-0.608,0.399-1.232,0.812-1.773,1.331c-0.536,0.517-1.683,0.629-2.376,0.894
		c-0.432,0.164-0.838,0.185-1.336,0.286c-1.577,0.319-3.27-0.096-4.563-0.995c-1.209-0.841-2.56-1.579-4.022-1.787
		c-0.586-0.09-1.252-0.102-1.83,0.148c-0.445,0.195-0.715,0.578-0.901,1.021c-0.018,0.033-0.198,0.044-0.225,0.041
		c-0.115-0.035-0.12-0.113-0.101-0.204c0.091-0.375,0.329-0.711,0.622-0.973c0.651-0.572,2.347-1.177,3.342-1.004
		c0.38,0.063,0.73,0.108,1.078,0.138c0.286,0.026,0.936,0.331,1.246,0.433c0.428,0.136,0.806,0.44,1.237,0.649
		c0.48,0.234,0.947,0.349,1.499,0.5c0.969,0.257,2.233,0.347,3.247,0.249c0.344-0.034,0.602-0.224,0.945-0.219
		c0.25,0.005,0.496,0.024,0.749-0.021c0.628-0.111,1.323-0.155,1.904-0.38c0.682-0.266,1.39-0.635,2.098-0.848
		c0.149-0.046,0.324-0.107,0.415-0.231c0.051-0.032,0.097,0.013,0.072,0.041C89.029,46.51,89.17,46.626,89.06,46.667 M66.683,47.606
		c0.128-1.093,0.756-2.128,1.715-2.779c0.537-0.365,1.1-0.653,1.673-0.934c0.435-0.216,0.892-0.254,1.311-0.444
		c0.344-0.159,0.597-0.183,0.947-0.217c1.772-0.169,3.588,0.244,5.311,0.704c0.75,0.202,1.477,0.23,2.191,0.482
		c0.117,0.045,0.202,0.116,0.321,0.165c0.474,0.186,0.945,0.182,1.419,0.404c0.389,0.181,0.85,0.281,1.285,0.32
		c1.232,0.107,2.548,0.023,3.791,0.047c0.46,0.01,0.861-0.216,1.262-0.381c0.315-0.126,0.684-0.059,1.025-0.121
		c0.075-0.014,0.112-0.098,0.19-0.194c0.07-0.082,0.361,0.156,0.11,0.254c-0.318,0.117-0.564,0.148-0.87,0.309
		c-0.774,0.408-1.961,0.832-2.775,1.234c-0.308,0.153-0.644,0.078-1.012,0.176c-0.827,0.218-1.697,0.392-2.562,0.28
		c-0.585-0.076-1.112-0.112-1.633-0.316c-0.751-0.289-1.437-0.514-2.191-0.753c-0.672-0.219-1.235-0.614-1.906-0.808
		c-0.096-0.027-0.667-0.22-0.799-0.239c-0.944-0.156-1.938-0.296-2.921-0.361c-0.735-0.046-2.809,0.725-3.297,0.946
		c-0.121,0.053-0.289,0.07-0.388,0.124c-0.226,0.111-0.369,0.28-0.612,0.425c-0.122,0.074-0.784,0.691-0.841,0.744
		c-0.172,0.154-0.426,0.39-0.457,0.618c-0.027,0.167,0.028,0.266,0.027,0.426c-0.007,0.116-0.166,0.21-0.262,0.151
		C66.646,47.81,66.699,47.692,66.683,47.606 M90.374,47.399l-0.058-0.029l-0.186-0.189c0,0-0.229-0.09-0.266-0.104
		c0.112-0.203,0.192-0.408,0.192-0.61c0-0.232-0.08-0.453-0.24-0.623c-0.069-0.078-0.183-0.071-0.275-0.118
		c0.072-0.023,0.166-0.062,0.166-0.062c0.102-0.062,0.194-0.136,0.194-0.136l0.061-0.045l0.168-0.218l0.135-0.355l-0.039-0.291
		l-0.06-0.231l-0.084-0.124l-0.255-0.277c-0.094-0.063-0.234-0.138-0.234-0.138l-0.104-0.054l-0.217-0.035l-0.21-0.013l-0.348,0.093
		c0,0-0.197,0.156-0.199,0.159c-0.006,0.001-0.189,0.008-0.189,0.008c0.005,0-0.407,0.045-0.407,0.045
		c-0.021,0.004-0.646,0.229-0.646,0.229l-0.141,0.057c0.003,0-0.477,0.131-0.477,0.131h-0.513c-0.097-0.344-0.205-0.718-0.205-0.718
		c-1.128-2.64-4.154-3.433-11.163-2.917c-5.114,0.376-8.728,2.057-10.738,4.992c-1.216,1.785,0.399,4.804,0.593,5.143l0.03,0.048
		l0.081,0.153c-0.097,0.146-0.888,0.446-1.472,0.662c-1.746,0.652-4.378,1.635-5.819,4.362c-1.934,3.64-1.351,7.131,1.63,9.831
		c3.453,3.133,9.027,3.676,12.044,3.722c2.665,0.038,5.979,0.082,10.436-2.91c3.62-2.438,5.436-6.012,5.436-8.623
		c0-0.527-0.071-1.016-0.222-1.445c0,0-0.034-0.072-0.063-0.123c0.168-0.253,0.373-0.569,0.373-0.569
		c0.049-0.11,0.154-0.339,0.154-0.339c0-0.023,0.108-0.62,0.108-0.62c-0.003-0.039-0.322-1.035-0.322-1.035
		c-0.017-0.026-0.098-0.144-0.098-0.144c-0.351-0.452-0.821-0.739-1.347-0.925c0.018-0.004,0.089-0.025,0.089-0.025l0.457-0.198
		c0.06-0.034,0.589-0.389,0.589-0.389c0.052-0.042,1.463-1.147,1.463-1.147c0.014-0.01,0.553-0.71,0.553-0.71
		c0.023-0.035,0.165-0.249,0.165-0.249l0.279-0.248l0.815-0.796c0.003-0.005,0.419-0.592,0.419-0.592
		c0.024-0.046,0.125-0.752,0.125-0.752c-0.004-0.043-0.121-0.393-0.121-0.393L90.374,47.399z"/>
	<path clip-path="url(#SVGID_2_)" fill="#54301A" d="M69.771,50.442c0.232-0.032,0.439-0.166,0.588-0.341
		c-0.028-0.213,0.001-0.377-0.076-0.528c-0.217-0.292-0.572-0.355-0.878-0.476c-0.235-0.029-0.513,0.061-0.752-0.015l-0.051,0.059
		c-0.145-0.026-0.249-0.132-0.339,0.043c0.007,0.051,0.007,0.051,0.015,0.105c0.215,0.293,0.612,0.341,0.934,0.471
		C69.15,50.146,69.613,50.182,69.771,50.442"/>
	<path clip-path="url(#SVGID_2_)" fill="#54301A" d="M69.212,54.102c0.236-0.032,0.476-0.052,0.534-0.282
		c0.019-0.052,0.025-0.064-0.015-0.104c-0.104-0.113-0.314-0.063-0.369-0.17c-0.026-0.049,0.017-0.063-0.016-0.105
		c-0.189-0.254-0.568-0.137-0.905-0.259c-0.225-0.083-0.436-0.444-0.677-0.293c-0.192,0.127,0.049,0.335,0.071,0.479
		c0.075,0.131,0.315,0.182,0.337,0.329c0.022,0.147-0.335,0.048-0.254,0.246c0.102,0.269,0.45,0.41,0.759,0.443
		c0.173,0.016,0.283-0.23,0.116-0.39c-0.044-0.037-0.008-0.137,0.038-0.116C68.979,53.946,69.032,54.125,69.212,54.102"/>
	<path clip-path="url(#SVGID_2_)" fill="#54301A" d="M70.357,52.456c0.37-1.011,0.873-1.93,1.494-2.813
		c0.209-0.133,0.358-0.31,0.263-0.568c-0.17,0.022-0.376,0.099-0.39,0.101c-0.468,0.269-0.763,0.678-1.051,1.099
		c-0.312,0.313-0.372,0.761-0.646,1.101c-0.03,0.085-0.007,0.154-0.023,0.216c-0.256,0.247-0.148,0.608-0.272,0.946
		c-0.185-0.086-0.354-0.063-0.536-0.147c-0.174,0.021-0.343,0.041-0.528-0.04c-0.155,0.125-0.075,0.274,0.006,0.426
		c0.406,0.057,0.806,0.382,1.243,0.218C70.065,52.814,70.209,52.635,70.357,52.456"/>
	<path clip-path="url(#SVGID_2_)" fill="#54301A" d="M72.646,50.775c0.01,0.073,0.023,0.14,0.034,0.208c0,0,0.525,0.315,0.937,0.102
		c0.122-0.341-0.036-0.641-0.352-0.813c-0.48-0.156-0.991-0.095-1.451-0.088c0.016,0.107-0.083,0.225-0.013,0.321
		C72.057,50.691,72.388,50.594,72.646,50.775"/>
	<path clip-path="url(#SVGID_2_)" fill="#54301A" d="M89.073,46.451c-0.091,0.125-0.267,0.186-0.415,0.23
		c-0.709,0.214-1.416,0.582-2.1,0.85c-0.581,0.223-1.272,0.268-1.902,0.38c-0.253,0.045-0.499,0.025-0.748,0.021
		c-0.344-0.009-0.602,0.184-0.946,0.219c-1.015,0.096-2.28,0.006-3.246-0.25c-0.552-0.151-1.021-0.267-1.5-0.5
		c-0.432-0.208-0.81-0.514-1.237-0.648c-0.311-0.104-0.96-0.408-1.246-0.435c-0.346-0.03-0.698-0.075-1.078-0.14
		c-0.995-0.17-2.689,0.436-3.342,1.006c-0.292,0.263-0.531,0.598-0.622,0.973c-0.019,0.09-0.014,0.169,0.1,0.202
		c0.027,0.005,0.207-0.005,0.225-0.038c0.188-0.444,0.458-0.827,0.901-1.022c0.579-0.249,1.245-0.237,1.831-0.149
		c1.463,0.209,2.812,0.948,4.021,1.787c1.297,0.901,2.985,1.313,4.563,0.996c0.499-0.1,0.907-0.121,1.337-0.285
		c0.694-0.267,1.84-0.379,2.378-0.896c0.541-0.518,1.164-0.931,1.772-1.33c0.104-0.065,0.146-0.065,0.271-0.103
		c0.396-0.107,0.589-0.501,0.973-0.651c0.106-0.041-0.032-0.157,0.082-0.176C89.168,46.463,89.126,46.419,89.073,46.451"/>
	<path clip-path="url(#SVGID_2_)" fill="#54301A" d="M66.998,47.717c0.001-0.161-0.055-0.259-0.027-0.427
		c0.031-0.227,0.285-0.464,0.457-0.617c0.058-0.053,0.72-0.671,0.841-0.744c0.241-0.146,0.387-0.314,0.612-0.425
		c0.099-0.054,0.267-0.071,0.388-0.124c0.488-0.222,2.563-0.992,3.297-0.948c0.983,0.068,1.976,0.208,2.92,0.361
		c0.133,0.02,0.704,0.213,0.8,0.24c0.671,0.194,1.233,0.589,1.907,0.808c0.754,0.238,1.438,0.464,2.19,0.753
		c0.521,0.202,1.048,0.24,1.633,0.315c0.864,0.112,1.734-0.062,2.561-0.278c0.369-0.099,0.705-0.024,1.013-0.177
		c0.814-0.403,2.001-0.826,2.776-1.234c0.305-0.161,0.552-0.19,0.869-0.309c0.251-0.099-0.04-0.337-0.11-0.254
		c-0.079,0.096-0.115,0.181-0.19,0.194c-0.342,0.062-0.71-0.006-1.025,0.121c-0.4,0.165-0.802,0.391-1.262,0.381
		c-1.243-0.023-2.559,0.06-3.791-0.047c-0.436-0.04-0.896-0.139-1.285-0.319c-0.474-0.223-0.945-0.218-1.419-0.404
		c-0.119-0.049-0.204-0.122-0.321-0.165c-0.715-0.252-1.441-0.282-2.191-0.483c-1.723-0.458-3.538-0.872-5.311-0.704
		c-0.351,0.034-0.604,0.059-0.948,0.218c-0.418,0.189-0.875,0.228-1.311,0.444c-0.572,0.281-1.135,0.568-1.672,0.934
		c-0.959,0.65-1.587,1.686-1.715,2.779c0.017,0.086-0.037,0.203,0.054,0.26C66.832,47.925,66.991,47.833,66.998,47.717"/>
	<path clip-path="url(#SVGID_2_)" fill="#54301A" d="M71.922,60.405c-0.28,0.337-0.586,0.682-0.704,1.104
		c-0.154,0.536-0.324,1.171-0.154,1.734c0.052,0.161,0.076,0.319,0.282,0.337c0.286,0.03,0.663-0.188,0.804-0.419
		c0.039-0.065,0.044-0.089,0.033-0.167c-0.014-0.113,0.27-0.127,0.254-0.244c-0.012-0.074,0.006-0.095,0.032-0.162
		c0.165-0.388,0.544-0.762,0.633-1.204c0.008-0.056-0.028-0.139-0.072-0.101c-0.324,0.283-0.548,0.604-0.847,0.91
		c-0.059,0.054-0.105-0.104-0.077-0.156c0.157-0.3,0.258-0.646,0.432-0.96c0.289-0.5,0.69-0.842,1.097-1.209
		c0.057-0.053,0.092-0.03,0.161-0.075c0.198-0.132,0.242-0.358,0.443-0.484c0.069-0.044,0.116-0.015,0.163-0.073
		c0.204-0.247,0.441-0.274,0.691-0.411c0.051-0.026-0.011-0.104-0.071-0.097C73.78,58.883,72.803,59.645,71.922,60.405"/>
	<path clip-path="url(#SVGID_2_)" fill="#54301A" d="M79.722,56.531c-0.446,0.096-0.861,0.185-1.277,0.372
		c-0.252,0.119-0.427,0.293-0.686,0.409c-0.116,0.054-0.163,0.032-0.273,0.09c-0.644,0.324-1.214,0.791-1.65,1.331
		c-0.648,0.967-1.323,2.199-0.896,3.38c0.09,0.256,0.655-0.137,0.774-0.26c0.392-0.426,0.907-0.789,1.07-1.311
		c0.037-0.102,0.017-0.324-0.092-0.256c-0.522,0.305-0.71,0.917-1.134,1.321c-0.038,0.038-0.094-0.049-0.07-0.098
		c0.356-0.913,0.897-1.78,1.404-2.642c0.037-0.063,0.018-0.089,0.032-0.164c0.02-0.191,0.233-0.313,0.396-0.428
		c0.622-0.416,1.175-0.898,1.84-1.247c0.151-0.079,0.422-0.07,0.549-0.178c0.088-0.07,0.123-0.025,0.157-0.125
		c0.02-0.051,0.192,0.01,0.225-0.029c0.033-0.045,0.017-0.121-0.021-0.159C79.963,56.428,79.834,56.508,79.722,56.531"/>
	<path clip-path="url(#SVGID_2_)" fill="#54301A" d="M89.547,47.932c-0.125,0.092-0.117,0.288-0.222,0.363
		c-0.655,0.487-1.26,0.993-1.859,1.454c-0.399,0.311-1.101,0.591-1.6,0.71c-1.331,0.317-2.619,0.629-3.993,0.688
		c-0.798,0.033-1.333,0.032-2.105-0.068c-1.401-0.184-2.717-0.619-4-1.094c-0.415-0.152-0.675-0.557-1.076-0.733
		c-0.191-0.082-0.125,0.073-0.208,0.146c0.018,0.427,0.474,0.667,0.771,0.946c1.098,1.002,2.372,1.808,3.874,2.194
		c1.378,0.352,2.649,0.013,3.819,0.205c0.281,0.046,0.57,0.014,0.854-0.094c0.805-0.308,1.712-0.384,2.371-0.948
		c0.453-0.391,0.957-0.722,1.408-1.107c0.296-0.25,0.397-0.661,0.684-0.928c0.504-0.468,1.021-0.855,1.342-1.418
		C89.644,48.182,89.666,47.849,89.547,47.932"/>
	<path clip-path="url(#SVGID_2_)" fill="#54301A" d="M82.783,56.143c0.063-0.032,0.05-0.058,0.104-0.063
		c0.281-0.041,0.431-0.218,0.633-0.405c0.057-0.005,0.057-0.005,0.111-0.014c-0.006-0.051-0.006-0.051-0.014-0.103
		c-0.015-0.105-0.17,0.022-0.184-0.085c-0.452,0.059-0.822,0.317-1.272,0.375c-0.833,0.468-1.577,1.052-2.164,1.77
		c-0.468,0.445-0.762,1.125-0.672,1.75c0.16,0.294,0.534,0.094,0.817,0.053c0.802-0.845,1.865-1.463,2.662-2.314
		c-0.008-0.051-0.008-0.051-0.017-0.105c-0.966,0.495-1.858,1.09-2.675,1.837c-0.058,0.008-0.063-0.045-0.068-0.096
		C80.639,57.647,81.515,56.568,82.783,56.143"/>
	<path clip-path="url(#SVGID_2_)" fill="#54301A" d="M81.321,61.952c-0.124,0.246-0.021,0.527-0.053,0.811
		c-0.02,0.156-1.075,1.166-1.258,1.284c-0.728,0.481-1.32,0.984-2.103,1.391c-0.999,0.516-2.04,0.949-3.117,1.194
		c-1.499,0.345-3.104,0.613-4.678,0.375c-1.505-0.236-3.015-0.705-4.449-1.259c-0.343-0.132-0.577-0.35-0.894-0.535
		c-0.148-0.092-0.336-0.115-0.49-0.206c-1.374-0.804-2.075-1.456-2.766-2.756c-0.362-0.686-0.41-1.395-0.487-2.141
		c-0.055-0.588,0.024-1.159,0.155-1.728c0.192-0.839,0.817-1.549,1.415-2.164c0.146-0.156,0.963-0.557,1.127-0.568
		c0.096-0.01,0.104-0.065,0.331-0.097c0.324-0.148,0.672-0.208,0.993-0.338c0.438-0.181,0.894-0.054,1.04,0.03
		c0.348,0.19,0.649,0.505,1.023,0.673c0.306,0.121,0.589,0.157,0.9,0.258c0.16,0.056,0.388-0.013,0.566-0.065
		c0.659-0.247,1.347-0.28,1.998-0.577c0.07-0.082,0.754-0.371,1.113-0.673c0.68-0.578,1.149-1.219,1.746-1.882
		c0.232-0.35,0.471-0.699,0.522-1.136c0.238-0.292,0.561-0.866,0.341-1.222l-0.114,0.014c-0.282,0.412-0.509,0.811-0.744,1.218
		c-0.831,1.076-1.713,2.149-2.926,2.887c-0.843,0.594-1.929,1.042-3.004,0.75c-0.431-0.156-0.769-0.489-1.2-0.704
		c-0.437-0.214-0.84-0.214-1.219-0.436c-0.86-0.115-1.302,0.004-1.777,0.062c-0.399,0.053-0.717,0.25-1.056,0.294
		c-0.263,0.194-0.605,0.321-0.846,0.534c-0.73,0.657-1.223,1.442-1.494,2.386c-0.129,0.438-0.345,0.765-0.521,1.19
		c-0.086,0.207-0.086,0.377-0.142,0.608c-0.054,0.213-0.004,0.475-0.072,0.705c-0.045,0.16,0.013,0.341,0.02,0.533
		c0.037,0.534,0.284,1.033,0.507,1.491c0.025,0.048-0.067,0.097-0.033,0.167c0.227,0.424,0.547,0.854,0.817,1.237
		c0.32,0.461,0.745,0.816,1.153,1.191c0.933,0.853,1.991,1.56,3.228,1.949c0.704,0.224,1.361,0.502,2.11,0.647
		c0.285,0.054,0.525,0.136,0.778,0.17c0.579,0.078,1.158,0.115,1.697,0.163c0.693,0.064,1.376,0.016,2.071-0.048
		c0.742-0.065,1.412-0.359,2.126-0.424c0.882-0.086,3.181-0.767,3.935-1.139c0.476-0.236,1.336-0.682,1.699-1.02
		c0.077-0.075,0.149-0.131,0.257-0.191c0.188-0.104,0.336-0.37,0.509-0.492c0.447-0.319,0.775-0.719,1.169-1.058
		c0.287-0.247,0.993-1.073,0.833-1.444C81.947,61.613,81.438,61.712,81.321,61.952"/>
	<path clip-path="url(#SVGID_2_)" fill="#54301A" d="M83.688,59.191c-0.08-0.149-0.142-0.2-0.31-0.121
		c0.013,0.05,0.023,0.155,0.035,0.209c-0.101,0.117-0.074,0.276-0.108,0.442c-0.225,0.462-0.522,0.903-0.98,1.195
		c-0.195,0.122-0.502,0.112-0.652,0.293c0.012,0.054,0.13,0.093,0.09,0.21c0.528,0.466,1.327-0.01,1.656-0.533
		c-0.013-0.054-0.013-0.054-0.019-0.108C83.624,60.322,83.819,59.71,83.688,59.191"/>
	<path clip-path="url(#SVGID_2_)" fill="#54301A" d="M84.557,53.672c-0.346-0.043-0.735,0.078-1.093,0.031
		c-0.497-0.07-2.094,0.454-2.619,0.647c-1.197,0.443-2.394,0.925-3.608,1.366c-0.595,0.216-1.126,0.466-1.672,0.799
		c-2.221,1.359-4.241,2.944-5.853,4.968c-0.046,0.062-0.103,0.022-0.162,0.077c-0.353,0.308-0.571,0.73-0.82,1.118
		c-0.089,0.147,0.125,0.294,0.263,0.183c0.179-0.148,0.347-0.332,0.504-0.492c0.862-0.893,1.673-1.772,2.685-2.533
		c0.193-0.146,0.318-0.356,0.509-0.491c0.187-0.135,0.356-0.188,0.527-0.333c0.71-0.618,1.454-1.151,2.309-1.579
		c2.004-1.005,4.292-1.496,6.438-2.149c0.427-0.132,3.077-0.75,3.296,0.064c0.317,1.131-1.048,1.771-1.723,2.415
		c-1.959,1.882-3.433,3.31-5.881,4.76c-0.582,0.343-1.408,0.426-1.905,0.775c-0.887,0.613-2.049,0.911-3.156,0.934
		c-0.962,0.017-2.875-0.017-3.775-0.547c-0.746-0.442-1.493-0.877-2.008-1.511c-0.134-0.173-0.124-0.381-0.252-0.56
		c-0.217-0.292-0.249-0.625-0.145-1c0.064-0.248,0.071-0.41,0.132-0.661c0.103-0.415,0.109-0.812,0.404-1.173
		c0.051-0.061,0.115-0.013,0.165-0.075c0.248-0.305,0.489-0.609,0.878-0.701c0.123-0.027,0.141-0.185,0.251-0.247
		c0.201-0.103,0.4-0.125,0.625-0.078c0.278,0.058,0.537,0.13,0.632,0.35c0.094,0.247,0.309,0.502,0.29,0.822
		c-0.035,0.503-0.354,0.979-0.732,1.324c-0.038,0.037-0.066-0.023-0.113,0.016c-0.139,0.113-0.324,0.175-0.476,0.273
		c-0.006,0.004-0.405,0.109-0.327,0.15c0.336,0.169,0.738-0.107,1.069-0.188c0.078-0.024,0.121-0.07,0.208-0.137
		c0.449-0.333,0.82-0.826,0.903-1.343c0.071-0.425-0.083-0.872-0.407-1.185c-0.219-0.216-0.527-0.259-0.851-0.317
		c-0.398-0.072-0.767,0.147-1.199,0.099c-0.29-0.037-0.661,0.24-0.785,0.149c-0.165,0.139-0.436,0.055-0.606,0.184
		c-0.254,0.199-0.611,0.268-0.852,0.483c-0.327,0.287-0.492,0.747-0.644,1.15c-0.018,0.049,0.046,0.108,0.021,0.159
		c-0.438,1.19,0.213,2.519,1.126,3.34c0.552,0.498,1.236,0.869,1.954,1.146c0.304,0.117,0.828,0.292,1.148,0.338
		c1.504,0.235,3.102,0.254,4.602-0.092c1.707-0.403,3.188-0.932,4.688-1.878c0.572-0.365,1.129-0.701,1.685-1.125
		c1.208-0.926,2.251-2.055,3.426-3.003c1.056-0.847,1.836-1.354,2.569-2.571c0.024-0.047,0.221-0.452,0.225-0.457
		c0.109-0.64-0.345-1.204-0.972-1.488C85.153,53.742,84.863,53.708,84.557,53.672"/>
	<path clip-path="url(#SVGID_2_)" fill="#FFFFFF" d="M118.229,91.084c-0.738-0.742-0.87-1.922-0.927-2.51
		c-0.073-0.791-0.045-1.58,0.071-2.36c0.183-1.237,0.691-3.029-0.487-3.924c-0.245-0.181-0.516-0.319-0.791-0.435
		c-0.22-0.092-0.463-0.22-0.709-0.205c-0.496,0.022-0.92,0.447-1.233,0.799c-0.328,0.373-0.609,0.785-0.855,1.217
		c-0.359,0.612-0.784,1.185-1.259,1.711c-1.002,1.108-2.193,2.021-3.412,2.874c-0.608,0.433-1.228,0.859-1.861,1.263
		c-0.621,0.396-1.313,0.774-2.056,0.85c-1.161,0.122-0.379-1.453-0.105-1.938c0.675-1.195,1.584-2.287,2.498-3.252
		c1.831-1.925,4.22-3.527,6.966-3.701c0.357-0.436,0.799-1.162,0.261-1.635c-0.451-0.402-1.174-0.457-1.747-0.489
		c-2.229-0.11-4.391,0.663-6.212,1.917c-1.096,0.76-2.088,1.702-2.826,2.814c-0.633,0.952-0.999,2.042-1.29,3.146
		c-0.295,1.114-0.578,2.539,0.091,3.58c0.7,1.092,1.994,1.349,3.19,1.045c0.683-0.172,1.333-0.496,1.955-0.818
		c0.709-0.355,1.394-0.757,2.069-1.176c1.325-0.83,2.595-1.746,3.836-2.69c0.758,1.47,1.145,3.259,2.564,4.344
		c0.471,0.36,1.089,0.651,2.395,0.443c0.127-0.016,0.7-0.182,0.447-0.397C118.601,91.395,118.42,91.273,118.229,91.084"/>
	<path clip-path="url(#SVGID_2_)" fill="#FFFFFF" d="M103.756,80.6c0.489,0.048,0.765-0.335,0.693-0.815
		c-0.091-0.584-0.704-1.031-1.248-1.163c-2.643-0.57-5.519,0.674-7.464,2.408c-0.019-0.49-0.374-1.01-0.632-1.412
		c-0.294-0.463-0.64-0.973-1.099-1.299c-0.146-0.109-0.386-0.219-0.46,0.023c-0.079,0.249-0.021,0.547-0.021,0.797
		c0,0.406-0.016,0.818-0.043,1.224c-0.101,1.391-0.274,2.845-0.659,4.187c-0.276,0.994-0.635,1.96-0.906,2.956
		c-0.274,0.996-0.523,2.065-0.395,3.106c0.112,0.959,0.647,1.694,1.564,2.02c0.854,0.297,1.573-0.074,2.021-0.814
		c0.477-0.775,0.684-1.703,0.866-2.585c0.171-0.812,0.233-1.61,0.342-2.429c0.167-1.281,0.559-2.548,1.369-3.57
		c0.795-1.004,1.768-1.979,2.927-2.555c0.518-0.258,1.147-0.55,1.739-0.438C102.828,80.328,103.273,80.555,103.756,80.6"/>
	<path clip-path="url(#SVGID_2_)" fill="#FFFFFF" d="M71.563,79.467c-2.672,0.377-4.897,2.619-6.308,4.815
		c-0.123-0.36,0.039-1.113-0.005-1.499c-0.062-0.52-0.091-1.061-0.313-1.543c-0.222-0.483-0.628-0.869-1.083-1.125
		c-0.744-0.436-1.577-0.771-2.408-1.006c-0.4-0.115-0.837-0.213-1.253-0.17c-0.175,0.021-0.67,0.17-0.512,0.432
		c0.198,0.329,0.675,0.534,0.994,0.709c0.348,0.188,0.702,0.351,1.02,0.59c0.436,0.328,0.436,0.727,0.382,1.238
		c-0.086,0.83-0.347,1.636-0.637,2.411c-0.524,1.413-1.139,2.812-1.3,4.325c-0.074,0.727-0.047,1.475,0.184,2.172
		c0.17,0.52,0.394,0.96,0.971,1.07c0.986,0.182,1.818-0.057,2.324-0.912c0.541-0.926,0.896-2.436,1.347-3.404
		c0.382-0.805,0.808-1.773,1.24-2.551c0.495-0.898,1.227-1.56,1.857-2.362c0.341-0.433,1.485-1.294,1.748-1.374
		c0.26-0.079,0.438-0.055,0.301,0.333c-0.165,0.474-1.859,4.775-1.221,7.313c0.604,2.391,2.889,3.078,3.542,3.338
		c0.168,0.073,0.482,0.175,0.604-0.034c0.182-0.308-0.024-0.86-0.164-1.132c-0.711-1.385-1.019-3.182-0.352-6.121
		c0.146-0.639,0.473-1.818,0.661-2.607c0.189-0.783,0.264-1.521-0.007-2.2C72.911,79.491,72.215,79.371,71.563,79.467"/>
	<path clip-path="url(#SVGID_2_)" fill="#FFFFFF" d="M56.651,89.07c-0.215-0.574-0.193-1.275-0.105-1.877
		c0.105-0.721,0.344-1.41,0.505-2.115c0.143-0.61,0.182-1.182-0.111-1.762c-0.511-1.007-1.753-1.607-2.822-1.115
		c-0.523,0.248-0.887,0.67-1.139,1.18c-0.224,0.451-0.377,0.946-0.688,1.349c-0.311,0.408-0.793,0.708-1.176,1.042
		c-0.466,0.407-0.921,0.814-1.382,1.222c-0.979,0.866-1.985,1.726-3.107,2.396c-0.976,0.586-2.108,1.069-3.265,0.941
		c0.113-0.646,0.484-1.182,0.84-1.713c0.418-0.625,0.87-1.221,1.37-1.786c1.008-1.132,2.312-1.98,3.529-2.867
		c1.095-0.795,2.226-1.593,3.505-2.061c0.801-0.295,1.702-0.714,1.386-1.735c-0.317-0.998-1.636-0.975-2.479-0.881
		c-0.965,0.11-1.909,0.379-2.824,0.693c-0.896,0.309-1.762,0.688-2.563,1.204c-1.167,0.757-2.185,1.735-3.015,2.853
		c-0.792,1.064-1.512,2.322-1.822,3.625c-0.243,1.016-0.205,2.179,0.393,3.07c0.591,0.877,1.616,1.205,2.635,1.076
		c0.719-0.089,1.414-0.362,2.073-0.652c0.719-0.315,1.418-0.694,2.09-1.106c1.346-0.826,2.598-1.79,3.845-2.755
		c-0.134,1.287,0.98,2.568,1.849,3.373c0.846,0.789,2.165,1.787,3.407,1.604c0.669-0.269-0.194-1.709-0.37-2.06
		C57.021,89.834,56.801,89.467,56.651,89.07"/>
	<path clip-path="url(#SVGID_2_)" fill="#FFFFFF" d="M34.122,77.853c-0.057-0.634-0.125-1.267-0.167-1.897
		c-0.019-0.216-0.072-0.978,0.167-1.015c3.627-0.545,9.437-0.72,10.475,0.325c0.388,0.387-0.436,1.742-1.479,2.654
		c-1.377,1.204-4.498,3.162-8.473,4.404C34.376,80.844,34.247,79.348,34.122,77.853 M35.866,88.051
		c-0.207-0.559-0.363-1.133-0.525-1.703c-0.234-0.831-0.439-1.676-0.521-2.539c-0.016-0.188-0.03-0.196,0.141-0.261
		c0.081-0.03,0.161-0.063,0.244-0.096c0.165-0.064,0.325-0.146,0.496-0.204c3.443-1.151,7.011-2.803,8.949-4.146
		c2.785-1.934,3.012-3.68,2.838-4.347c-0.164-0.63-0.546-1.241-1.113-1.544c-3.809-2.048-12.521-2.735-17.524-2.108
		c-1.056,0.132-2.138,0.282-3.15,0.641c-1.147,0.407-1.874,1.247-1.703,2.104c0.25,1.279,1.204,2.383,2.395,2.842
		c0.52,0.195,1.061,0.308,1.548-0.012c0.529-0.352,0.988-0.709,1.589-0.942c0.741-0.292,2.171-0.557,2.331-0.499
		c0.156,0.063-0.47,3.029-0.589,3.768c-0.14,0.814-0.267,1.637-0.437,2.449c-0.325,1.529-0.779,7.626-0.132,8.88
		c0.571,1.118,1.236,1.854,2.421,2.298c0.589,0.22,1.229,0.297,1.849,0.199c0.51-0.08,1.078-0.244,1.405-0.676
		c0.567-0.758,0.247-1.898-0.011-2.715C36.217,88.973,36.038,88.508,35.866,88.051"/>
	<path clip-path="url(#SVGID_2_)" fill="#FFFFFF" d="M80.366,83.222c0.688-0.503,1.45-0.946,2.238-1.251
		c1.077-0.412,2.376-0.486,3.496-0.24c0.3,0.064,1.751,0.498,1.144,1.033c-1.559,1.385-5.777,2.362-7.938,1.894
		C79.083,84.112,80.032,83.472,80.366,83.222 M90.143,85.35c-0.412,0.006-0.837,0.188-1.218,0.326
		c-1.374,0.515-2.702,1.133-4.077,1.636c-1.312,0.484-2.791,1.015-4.216,0.909c-0.512-0.041-1.037-0.195-1.398-0.582
		c-0.416-0.445-0.524-1.076-0.519-1.664c2.551,0.129,5.107-0.113,7.503-1.039c0.965-0.371,1.847-0.809,2.518-1.619
		c0.356-0.443,0.648-0.973,0.688-1.551c0.046-0.626-0.229-1.199-0.655-1.652c-0.887-1.084-2.499-1.045-3.748-0.818
		c-1.506,0.273-2.976,0.865-4.304,1.625c-1.165,0.666-2.224,1.533-3.133,2.515c-0.925,0.991-1.801,2.187-2.152,3.525
		c-0.277,1.032-0.24,2.185,0.227,3.161c0.502,1.042,1.461,1.713,2.575,1.955c1.454,0.313,2.983-0.009,4.358-0.49
		c1.137-0.397,2.22-0.923,3.277-1.487c0.907-0.485,1.801-1.011,2.627-1.624c0.745-0.554,1.598-1.254,1.898-2.167
		C90.499,85.996,90.631,85.339,90.143,85.35"/>
	<path clip-path="url(#SVGID_2_)" fill="#FFFFFF" d="M97.028,100.066h0.362c0.377,0,0.498-0.106,0.498-0.326
		c0-0.194-0.094-0.299-0.443-0.299h-0.417V100.066z M97.028,101.185h-0.306v-1.995h0.766c0.474,0,0.707,0.179,0.707,0.566
		c0,0.362-0.222,0.519-0.524,0.551l0.575,0.878h-0.341l-0.532-0.868h-0.345V101.185z M97.396,98.734c-0.8,0-1.423,0.621-1.423,1.448
		c0,0.847,0.623,1.456,1.423,1.456c0.798,0,1.417-0.609,1.417-1.456C98.813,99.355,98.193,98.734,97.396,98.734 M97.396,98.455
		c0.945,0,1.755,0.734,1.755,1.728c0,1.002-0.81,1.739-1.755,1.739c-0.95,0-1.759-0.737-1.759-1.739
		C95.637,99.189,96.445,98.455,97.396,98.455"/>
	<path clip-path="url(#SVGID_2_)" fill="#FFFFFF" d="M54.15,104.061c0.765,0,1.337-0.15,1.337-0.88c0-0.646-0.525-0.849-1.337-0.849
		h-2.613v1.729H54.15z M54.116,101.333c0.789,0,1.139-0.197,1.139-0.712c0-0.523-0.35-0.725-1.139-0.725h-2.579v1.437H54.116z
		 M50.331,98.899h3.712c1.444,0,2.411,0.405,2.411,1.574c0,0.783-0.38,1.071-0.711,1.282c0.436,0.19,0.952,0.711,0.952,1.517
		c0,1.166-0.923,1.79-2.426,1.79h-3.938V98.899z"/>
	<path clip-path="url(#SVGID_2_)" fill="#FFFFFF" d="M63.423,101.639c0.984,0,1.483-0.146,1.483-0.872
		c0-0.724-0.499-0.87-1.483-0.87h-2.326v1.742H63.423z M59.898,98.899h3.704c1.454,0,2.508,0.333,2.508,1.84
		c0,1.133-0.813,1.763-1.721,1.811l1.886,2.513h-1.482l-1.786-2.432h-1.91v2.432h-1.198V98.899z"/>
	<polygon clip-path="url(#SVGID_2_)" fill="#FFFFFF" points="69.466,98.899 74.986,98.899 74.986,99.936 70.668,99.936 
		70.668,101.366 74.387,101.366 74.387,102.4 70.668,102.4 70.668,104.028 75.094,104.028 75.094,105.063 69.466,105.063 	"/>
	<path clip-path="url(#SVGID_2_)" fill="#FFFFFF" d="M82.44,102.61l-1.288-2.739l-1.29,2.739H82.44z M80.464,98.899h1.371
		l2.995,6.163h-1.277l-0.645-1.415h-3.546l-0.655,1.415h-1.278L80.464,98.899z"/>
	<path clip-path="url(#SVGID_2_)" fill="#FFFFFF" d="M90.08,104.028c2.052,0,2.85-0.631,2.85-2.069c0-1.507-0.83-2.023-2.85-2.023
		h-1.22v4.093H90.08z M87.657,98.899h2.967c1.951,0,3.508,0.823,3.508,3.047c0,2.098-1.422,3.116-3.456,3.116h-3.019V98.899z"/>
</g>
</svg>
